<svg version="1.1" id="Layer_1" xmlns="http://www.w3.org/2000/svg" x="0" y="0" viewBox="0 0 1280.1 580.5" xml:space="preserve"><style>.st0{fill:#1c3e7c}.st1{fill:#67b9e8}</style><path class="st0" d="M91.3 76.9l-76.9 55.3 91 120.1 49.8-53.5L91.3 76.9z"/><path class="st1" d="M155.1 198.9l-49.8 53.5 206.5-28.2 52.6-50.6-209.3 25.3z"/><path d="M238.7 293.7l25.3 92.9 100.4-213-125.7 120.1z" fill="#3756a2"/><path d="M458.6 283.1l-161.7 33.1-32.9 70.4 245-14.1-50.4-89.4z" fill="#f3e02d"/><path class="st0" d="M413.2 202.7L509 372.5l.9-136.1-96.7-33.7z"/><path class="st1" d="M562.5 16.9l133.2 183.9-8.4 100.5-274.1-98.5L562.5 16.9z"/><path d="M829 6.5L704.1 89.1l-16.8 212.1 93.9-75.1L829 6.5z" fill="#656563"/><path d="M878.7 171.7L823.4 31.8l-42.2 194.3 68.5 148.2 29-202.6z" fill="#aeb5b1"/><path d="M1010.1 42.2L878.7 171.7l-29 202.7 113.5-109.8 46.9-222.4z" fill="#eb6896"/><path d="M1123.7 138.9l-113.6-96.7-46.9 222.4 160.5 104.2V138.9z" fill="#d2eaee"/><path class="st0" d="M1150 118.1l-26.3 20.7v229.9l141.8-95.7L1150 118.1z"/><path d="M49.5 563.1h11.7v-60.8H49.5V493h64.2v22.3h-10.6v-13H72.7v25.5h32.8v9.3H72.7v26.1h30.8v-13.4h10.7v22.7H49.5v-9.4zm93.4-60.8h-10.3V493h34.2v9.3H155l21.2 56.5 21.2-56.5h-11.8V493h33.9v9.3h-10.3l-27.4 70.1h-11.6l-27.3-70.1zm91.3 30.5c0-24 16.5-41.4 40.8-41.4s40.8 17.3 40.8 41.4S299.2 574 275 574c-24.2 0-40.8-17.2-40.8-41.2zm69.9 0c0-19.3-12-31.7-29-31.7-16.9 0-28.9 12.5-28.9 31.7 0 19.3 11.8 31.6 28.9 31.6 16.9-.1 29-12.4 29-31.6zm33.3 30.3h11.7v-60.8h-11.7V493h36.5v9.3h-13.3v60.8h30.8V549h10.7v23.5h-64.6l-.1-9.4zm81.4-60.8h-10.3V493h34.3v9.3H431l21.2 56.5 21.2-56.5h-11.8V493h33.9v9.3h-10.3l-27.4 70.1h-11.6l-27.4-70.1zm93.8 60.8h11.7v-60.8h-11.7V493h64.2v22.3h-10.6v-13h-30.5v25.5h32.8v9.3h-32.8v26.1h30.8v-13.4h10.7v22.7h-64.6v-9.4zm88.8 0h11.7v-60.8h-11.7V493h36.8c25.8 0 42.1 14.6 42.1 39.8 0 25-16.3 39.6-42.1 39.6h-36.8v-9.3zm36.7 0c19.5 0 30.4-11.2 30.4-30.4 0-19.3-10.9-30.5-30.4-30.5h-13.6V563l13.6.1zm108.3 5.3h13.4v-71.3h-13.4v-4h34.4c16.1 0 28.3 6.6 28.3 19.9 0 8.1-4.3 15.7-16.5 18.8 14.5 2.2 20 10.9 20 19.9 0 14-12.9 20.7-29.4 20.7h-36.8v-4zm32.5-38.3c15.7 0 25.5-5.8 25.5-16.7 0-10.9-9.7-16.3-23.8-16.3h-16.4V530l14.7.1zm4.1 38.3c15 0 25-5.6 25-16.9 0-11.8-10.7-17.5-25.7-17.5h-18v34.4H783zm53.4-.2h13.4v-71h-13.4V493H868v4.2h-13.4v71H868v4.2h-31.6v-4.2zm53.8 0h13.4v-71h-13.4V493h18.3l52 71.8v-67.6H947V493h31.3v4.2h-13.4v75.2h-4.3L908.1 500v68.2h13.4v4.2h-31.3v-4.2zm101.6 0h11.8l28.6-71h-12.4V493h19.6l30.2 75.2h11.8v4.2h-30.9v-4.2h14.2l-9.5-23.5h-37.6l-9.4 23.5h14.2v4.2h-30.9v-4.2h.3zm62-27.7l-17.1-42.8-17.2 42.8h34.3zm44.5 27.7h13.4v-71h-13.4V493h35.1c10.6 0 30.2 3 30.2 23 0 13.2-8.6 20.2-20.2 22.7l16 29.6h13.2v4.2h-16l-17.9-32.9c-1.9.3-3.5.3-5.4.3h-16.9v28.5h13.4v4.2h-31.6l.1-4.4zm35.1-32.6c16.7 0 25.4-6.6 25.4-19.2 0-12.5-8.7-19.2-25.4-19.2h-16.9v38.3h16.9zm75.1 32.6h13.4v-26.5l-27.3-44.6h-12V493h31v4.2h-13.8l24.3 40.4 24.5-40.4H1235V493h30.8v4.2h-12l-27.3 44.6v26.5h13.4v4.2h-31.6v-4.2h.2z" fill="#48565e"/></svg>